<svg width="342" height="23" viewBox="0 0 342 23" fill="none" xmlns="http://www.w3.org/2000/svg">
<path d="M12.9479 4.08409L13.5913 1.5434C14.5075 1.30596 14.7894 1.18723 14.8495 0.949788C14.9337 0.617362 14.7191 0.569872 11.127 0.237447C10.9752 1.23472 10.8981 1.63838 10.6636 2.56443L10.2788 4.08409H7.83634C7.23202 4.08409 6.81598 4.0366 6.2981 3.89413L6.26993 4.70145C6.67168 4.60647 7.03021 4.58272 7.71008 4.58272H10.1525L9.25665 8.12068H6.33576C5.68107 8.12068 5.13913 8.07319 4.57089 7.93073L4.5367 8.76179C5.09555 8.64306 5.45408 8.61932 6.20949 8.61932H9.45772L7.47953 16.4313C6.92368 15.7427 6.72975 15.3153 6.52791 14.2231C6.96986 13.2733 7.17167 12.7746 7.65946 11.4449C8.43065 11.1837 8.68733 11.065 8.73543 10.8751C8.7655 10.7563 8.69484 10.6376 8.50542 10.5901C8.25851 10.4714 8.08826 10.4477 5.32708 10.1152C5.25118 10.6139 5.20307 10.8038 5.1189 11.1363C4.82427 12.2997 4.02043 14.5792 3.35375 16.2176C2.52134 18.2122 1.85615 19.4469 0.540434 21.5602L0.793364 21.6552C3.30946 19.3757 4.78566 17.5236 6.17728 14.9117C6.28181 17.8797 7.49387 19.7556 9.91645 20.7291C11.3585 21.299 13.1102 21.4414 19.2038 21.4414C21.2686 21.4414 22.6595 21.4177 23.1247 21.3702C23.4077 21.3465 23.4389 21.3227 23.6407 20.8241C23.8114 20.3492 24.1703 19.8268 24.6058 19.3994C24.9166 19.067 25.129 18.9245 25.6544 18.6396L25.7085 18.4259C22.4264 18.7583 18.4754 18.9483 15.1768 18.9483C12.3566 18.9483 10.9251 18.7346 9.64618 18.1172L10.8848 13.2258H15.241C15.3669 13.2258 15.4796 13.1783 15.5037 13.0833C15.5157 13.0358 15.4774 12.9883 15.4319 12.8696C14.7862 12.0386 14.5754 11.7774 13.8229 10.97C12.9819 11.7061 12.7203 11.9436 11.8672 12.7272H11.0111L12.0513 8.61932H16.483C16.6089 8.61932 16.7216 8.57183 16.7397 8.5006C16.7517 8.45311 16.7445 8.38187 16.6619 8.31064C15.9215 7.45583 15.6794 7.21838 14.8707 6.43481C14.0548 7.17089 13.8244 7.3846 13.0085 8.12068H11.9257L12.8216 4.58272H17.5303C17.6562 4.58272 17.769 4.53524 17.787 4.464C17.805 4.39277 17.7919 4.34528 17.7152 4.2503C16.9316 3.46672 16.6896 3.22928 15.8556 2.4457C15.0517 3.1343 14.7902 3.37175 14.0055 4.08409H12.9479ZM19.6582 1.94706C19.1042 1.94706 18.5875 1.89958 18.0696 1.75711L18.0354 2.58817C18.5127 2.49319 18.9528 2.4457 19.5319 2.4457H24.6938L23.371 7.66953H20.0473C18.9435 6.95719 18.5695 6.74349 17.3661 6.12613C17.1038 7.36085 16.9847 7.93073 16.7983 8.66681L15.9144 12.1573C15.7461 12.8221 15.692 13.0358 15.4875 13.8431L15.0546 15.5528C14.6709 17.1674 14.9682 17.2861 19.3747 17.2861C22.1949 17.2861 23.7046 17.1911 24.5141 16.9774C25.2169 16.7875 25.6836 16.3363 25.834 15.7427C25.9422 15.3153 25.8249 14.9829 25.5588 14.8404C24.8564 14.5317 24.8564 14.5317 24.9226 14.2706C24.9346 14.2231 24.9707 14.0806 25.0067 13.9381L26.1642 10.1627L25.9184 10.139C24.3588 12.9171 23.6853 13.9856 23.2005 14.508C22.7529 14.9829 22.3824 15.0541 20.6198 15.0541C20.5694 15.0541 20.4687 15.0541 20.3428 15.0541C19.6186 15.0304 19.115 15.0304 18.838 15.0304C17.9567 15.0304 17.8548 14.9354 17.9931 14.3893L19.5685 8.16817H23.2448L23.0163 9.07047C22.9141 9.47413 23.0471 9.54536 23.8529 9.54536C25.3133 9.54536 25.7271 9.40289 25.8714 8.83302C26.29 6.98094 26.4873 6.10238 26.8601 4.63021L27.2269 3.18179C27.997 2.82562 28.2405 2.65941 28.2946 2.4457C28.3187 2.35072 28.248 2.232 28.0695 2.04204C27.3565 1.37719 27.1277 1.18723 26.3523 0.569872C25.5785 1.13975 25.3541 1.3297 24.5935 1.94706H19.6582Z" fill="white"/>
<path d="M53.7724 5.24757C53.9487 5.24757 54.0866 5.20009 54.1047 5.12885C54.1167 5.08136 54.0844 5.01013 54.0269 4.93889C53.1666 4.06034 52.8994 3.82289 51.9899 3.03932C50.7865 4.01285 50.7865 4.01285 49.8447 4.74894H47.3519C48.6654 4.0366 48.7841 3.96536 51.2818 2.25575C51.3825 2.25575 51.4581 2.25575 51.4832 2.25575C52.1883 2.25575 52.5145 2.16077 52.5686 1.94706C52.6348 1.68587 51.9383 1.35345 49.5037 0.427405C48.8998 1.51966 47.7667 3.11055 46.395 4.74894H45.413L46.2848 1.30596C47.0944 1.09226 47.3259 0.973532 47.374 0.783574C47.4581 0.451149 47.1176 0.40366 43.9931 0.213702C43.8089 1.13975 43.7259 1.56715 43.4974 2.46945L42.9202 4.74894H41.0568L41.9407 1.25847C42.7442 1.06851 42.9757 0.949788 43.0298 0.736086C43.0599 0.617363 42.9832 0.522384 42.819 0.474895C42.5661 0.379916 42.3706 0.356171 39.6237 0.166214C39.502 1.04477 39.425 1.44843 39.1604 2.49319L38.5892 4.74894H32.6215C31.992 4.74894 31.3805 4.6777 30.7427 4.51149L30.6774 5.3663C31.1738 5.29506 31.765 5.24757 32.4952 5.24757H36.6751L36.4256 5.43753C36.895 6.2686 36.9965 6.86221 36.998 8.04945C36.9965 8.45311 37.0168 8.57183 37.1701 8.76179H32.8895C32.26 8.76179 31.7684 8.7143 31.1055 8.54809L31.0401 9.40289C31.75 9.28417 32.1338 9.26043 32.7633 9.26043H39.4863L38.9452 11.3974H33.7077C32.9272 11.3974 32.3661 11.3262 31.6467 11.1837L31.5813 12.0386C32.3104 11.9436 32.9016 11.8961 33.5815 11.8961H38.8189L38.2417 14.1756H30.6877C30.033 14.1756 29.5666 14.1281 28.8029 13.9619L28.7064 14.8404C29.3659 14.7217 30.0074 14.6742 30.5614 14.6742H36.0507C34.7116 15.8852 33.9822 16.4788 32.7273 17.3574C30.6171 18.8295 28.6907 19.8743 26.2606 20.9191L26.3395 21.204C28.9947 20.5629 30.3308 20.1592 31.9968 19.4469C34.001 18.5921 35.4141 17.7848 37.7607 16.0751L37.3939 17.5236C37.2556 18.0697 36.5968 20.3729 36.2218 21.6552C36.1196 22.0588 36.2274 22.13 37.0584 22.13C38.5944 22.13 38.9458 22.0351 39.072 21.5364C39.5376 19.3994 39.7541 18.5446 40.0427 17.4049L40.644 15.0304C41.7441 17.5473 43.02 18.972 45.1547 20.088C46.0728 20.5392 47.3818 21.0378 47.7092 21.0378C47.9106 21.0378 47.9418 21.014 48.1951 20.6104C48.9862 19.3757 49.5033 18.9245 50.4748 18.5683L50.559 18.2359C47.4596 18.046 45.3388 17.5711 43.4773 16.6688C42.5149 16.1939 41.8666 15.6715 41.0615 14.6742H50.7055C50.9069 14.6742 51.0449 14.6267 51.0689 14.5317C51.087 14.4605 51.0546 14.3893 50.972 14.318C50.1248 13.487 49.8636 13.2258 48.929 12.4422C47.962 13.1783 47.6561 13.392 46.6519 14.1756H40.8604L41.4377 11.8961H49.1428C49.319 11.8961 49.457 11.8486 49.481 11.7536C49.4931 11.7061 49.4667 11.6111 49.3841 11.5399C48.6005 10.7563 48.3524 10.5426 47.4812 9.80655C46.6078 10.4714 46.3271 10.6851 45.4165 11.3974H41.5639L42.1051 9.26043H51.4469C51.598 9.26043 51.7359 9.21294 51.754 9.1417C51.772 9.07047 51.7337 9.02298 51.6762 8.95175C50.8542 8.12068 50.5618 7.88323 49.6463 7.1234C48.7417 7.812 48.4298 8.04945 47.494 8.76179H43.5659C44.3732 8.35813 44.3732 8.35813 46.843 6.95719C46.9126 6.98094 46.9881 6.98094 47.0133 6.98094C47.6932 6.98094 48.0194 6.88596 48.0795 6.64851C48.1456 6.38732 48.1456 6.38732 45.186 5.24757H53.7724ZM44.909 5.24757C44.1946 6.57728 43.5381 7.47958 42.3824 8.76179H38.404C39.0109 8.45311 39.4585 7.97821 39.5908 7.45583C39.7892 6.67226 39.0079 6.07864 36.6751 5.24757H44.909ZM34.0969 0.712341C34.7783 1.89958 35.0271 2.70689 35.0203 3.72792C35.0031 4.39277 35.1827 4.6777 35.6108 4.6777C36.341 4.6777 37.4004 3.77541 37.5989 2.99183C37.8394 2.04204 37.0137 1.42468 34.3464 0.522383L34.0969 0.712341Z" fill="white"/>
<path d="M54.7714 11.2889C54.9424 11.7502 55.1073 12.008 55.3977 12.2251C55.7065 12.4829 56.3018 12.6322 56.9349 12.6322C57.0356 12.6322 57.1829 12.6186 57.4166 12.605C56.3894 13.6498 55.1787 14.681 54.546 15.0202C54.0278 15.3051 54.01 15.3187 53.8749 15.4544C53.7755 15.5629 53.6945 15.7122 53.6533 15.875C53.4918 16.5127 53.6449 16.9876 54.0046 16.9876C54.2348 16.9876 54.3884 16.8926 54.8759 16.4449C56.3452 15.0745 57.5277 14.3825 58.4054 14.3825C58.7075 14.3825 58.9287 14.5317 58.9998 14.7624C59.0496 15.0202 59.0481 15.1966 58.932 15.7122C57.7845 16.3228 57.363 16.567 56.9386 16.8791C56.0364 17.5439 55.5084 18.2088 55.3434 18.8601C55.182 19.4978 55.3392 20.0134 55.8035 20.339C56.3911 20.7461 57.3248 20.9225 58.9076 20.9225C60.2026 20.9225 61.2016 20.841 61.7718 20.6918C62.1268 20.5968 62.3797 20.3933 62.4416 20.1491C62.5069 19.8913 62.3995 19.6335 62.1489 19.4299C61.9092 19.24 61.5804 19.1179 61.3502 19.1179C61.2207 19.1179 61.1131 19.145 60.7046 19.2807C60.0166 19.4978 58.8996 19.647 57.9643 19.647C56.4967 19.647 55.896 19.3485 56.0609 18.6972C56.2362 18.0053 56.956 17.4354 58.7018 16.6213C58.609 16.9876 58.5465 17.1776 58.4531 17.4897C58.2828 17.9917 58.2828 17.9917 58.2725 18.0324C58.1832 18.3852 58.3728 18.6023 58.7613 18.6023C59.0634 18.6023 59.3856 18.4666 59.5557 18.2495C59.6798 18.1002 59.7842 17.8017 59.9525 17.1369C59.9869 17.0012 59.9937 16.9741 60.1952 16.065C61.2294 15.6172 62.6631 15.183 64.4065 14.776C64.8478 14.681 65.0261 14.5453 65.0948 14.2739C65.2735 13.5684 64.2684 12.5372 63.4195 12.5372C63.2756 12.5372 63.1858 12.5508 62.9528 12.6186C63.4124 12.8493 63.6205 13.1071 63.5518 13.3784C63.5208 13.5005 63.4036 13.6227 63.1712 13.7448C62.8388 13.9212 62.2486 14.2061 61.7654 14.4096C60.5091 14.9388 60.5091 14.9388 60.2302 15.0745C60.2078 14.7081 60.1483 14.5453 60.0094 14.3554C59.7828 14.0569 59.378 13.894 58.9032 13.894C58.2844 13.894 57.6821 14.0569 56.691 14.5046C56.9577 14.2468 56.9577 14.2468 57.6969 13.487C57.9101 13.2699 58.0665 13.1071 58.6459 12.5236C59.845 12.3337 60.8353 12.1166 61.7995 11.8316C62.8104 11.5331 63.1072 11.3839 63.1793 11.0989C63.2687 10.7462 62.8119 10.4477 62.1788 10.4477C62.0205 10.4477 61.8807 10.4884 61.7415 10.5833C61.1561 10.9633 61.0094 11.0311 59.6223 11.4517C59.9988 11.0447 60.3437 10.7055 60.6392 10.4477C60.8565 10.2713 60.9628 10.1356 60.9903 10.027C61.0487 9.79638 60.87 9.59285 60.5084 9.43003C60.0673 9.24007 59.4651 9.11796 58.9615 9.11796C58.6305 9.11796 58.4763 9.15866 58.133 9.32148C58.9084 9.49787 59.1775 9.7421 59.0607 10.2034C58.968 10.5698 58.5872 11.2211 58.1792 11.696C57.5871 11.8181 57.1739 11.8588 56.7135 11.8588C55.8214 11.8588 55.4275 11.7095 54.9106 11.1939L54.7714 11.2889Z" fill="white"/>
<path d="M72.4547 20.1117H83.1563L82.8196 21.4414C82.7365 21.8689 82.8696 21.9401 83.8768 21.9401C84.7077 21.9401 85.4116 21.8451 85.6743 21.7026C85.8243 21.6077 85.9359 21.4652 85.984 21.2752C85.99 21.2515 86.002 21.204 86.0081 21.1803C86.8419 17.1911 86.8419 17.1911 90.3654 3.27677C91.1858 2.9206 91.4545 2.75438 91.5147 2.51694C91.5447 2.39821 91.4992 2.27949 91.3399 2.11328C90.5574 1.42468 90.3094 1.21098 89.4645 0.569872C88.6223 1.21098 88.3416 1.42468 87.4621 2.11328H77.3649C76.0837 1.30596 75.6906 1.06851 74.3482 0.40366C73.7165 3.39549 73.2978 5.24758 72.4801 8.47685C71.2896 13.1783 69.8371 18.6158 69.0318 21.299C68.8995 21.8214 69.0577 21.8926 70.0649 21.8926C70.921 21.8926 71.6501 21.7976 71.8565 21.6789C72.0316 21.5839 72.112 21.4652 72.1782 21.204L72.4547 20.1117ZM86.313 7.64579H75.6114L76.8861 2.61192H87.5877L86.313 7.64579ZM86.1867 8.14443L84.8819 13.297H74.1804L75.4852 8.14443H86.1867ZM84.7557 13.7957L83.2826 19.6131H72.581L74.0541 13.7957H84.7557Z" fill="white"/>
<path d="M101.251 5.53251L102.231 1.66213C103.066 1.44843 103.435 1.28221 103.489 1.06851C103.574 0.736086 103.144 0.641107 99.8041 0.308681C99.6643 1.25847 99.4922 2.13702 99.1796 3.37175L98.6324 5.53251H97.0712C96.4166 5.53251 96.0005 5.48502 95.3376 5.31881L95.3034 6.14987C95.9066 6.05489 96.2651 6.03115 96.945 6.03115H98.5061L97.2134 11.1363C95.6124 11.4924 94.5379 11.6586 93.6003 11.6824C93.6691 14.2943 93.7585 14.9354 94.0607 14.9354C94.2873 14.9354 94.4854 14.6505 94.7413 13.9381C96.045 13.4632 96.045 13.4632 96.6903 13.202L95.2653 18.8295C95.1931 19.1145 95.0996 19.1857 94.7974 19.1857C93.6703 19.162 93.2734 19.1382 91.6164 19.0195L91.5191 19.3044C92.7766 19.7081 93.1566 19.898 93.4189 20.2542C93.6681 20.5629 93.7241 21.0378 93.6373 21.6789C93.5723 22.0351 93.5854 22.0826 93.8624 22.0826C94.0135 22.0826 94.2461 22.0588 94.4787 22.0351C95.66 21.8451 96.5055 21.4889 97.0095 20.9903C97.3707 20.6579 97.5244 20.3492 97.766 19.4944C98.2508 17.3811 98.2508 17.3811 98.4011 16.7875L99.0565 14.1993L99.6649 11.8961C101.555 10.9938 102.112 10.6851 103.562 9.8303L103.528 9.56911C100.993 10.3289 100.993 10.3289 100.008 10.5426L101.15 6.03115H104.348C104.549 6.03115 104.662 5.98366 104.686 5.88868C104.698 5.84119 104.685 5.7937 104.634 5.69872C104.09 4.96264 103.917 4.74894 103.292 4.0366C102.476 4.77268 102.476 4.77268 101.629 5.53251H101.251ZM108.457 1.63838C109.272 1.40094 109.504 1.28221 109.558 1.06851C109.624 0.807321 109.276 0.688597 107.802 0.546128C107.436 0.498639 106.825 0.427404 106.037 0.356171C105.891 1.3297 105.808 1.75711 105.567 2.70689L104.257 7.88323C104.058 8.66681 104.169 9.02298 104.714 9.26043C105.163 9.47413 105.812 9.49787 109.866 9.49787C114.096 9.49787 115.524 9.42664 116.377 9.1417C116.954 8.95175 117.321 8.59558 117.459 8.04945C117.568 7.62204 117.451 7.3846 116.958 7.14715C116.691 7.00468 116.621 6.88596 116.687 6.62477C116.699 6.57728 116.723 6.4823 116.753 6.36357L117.543 3.94162L117.328 3.89413C116.158 5.53251 115.792 5.98366 115.301 6.52979C114.705 7.19464 114.555 7.28962 113.781 7.36085C113.423 7.3846 111.119 7.43209 109.583 7.43209C107.921 7.43209 107.348 7.40834 107.196 7.31336C107.057 7.26587 107.062 7.14715 107.152 6.79098L107.573 5.12885C110.526 4.70145 113.465 4.0366 116.783 3.06306C117.118 3.1343 117.414 3.15804 117.691 3.15804C117.943 3.15804 118.174 3.03932 118.21 2.89685C118.276 2.63566 117.806 2.30323 115.535 0.831064C114.531 1.61464 113.28 2.27949 110.963 3.27677C109.779 3.77541 109.14 4.01285 107.741 4.464L108.457 1.63838ZM100.818 21.5602C100.704 22.0113 100.837 22.0826 101.618 22.0826C103.355 22.0826 103.575 22.0113 103.737 21.3702L103.948 20.5391H109.789L109.549 21.4889C109.46 21.9401 109.542 22.0113 110.373 22.0113C111.884 22.0113 112.298 21.8689 112.442 21.299C113.022 18.7108 113.203 17.9985 114.477 12.9646C115.36 12.5609 115.51 12.466 115.552 12.2997C115.582 12.181 115.537 12.0623 115.377 11.8961C114.684 11.255 114.461 11.0413 113.641 10.4002C112.892 10.97 112.668 11.16 111.939 11.7536H106.449C105.345 11.0413 104.972 10.8276 103.737 10.234C103.457 11.5399 103.205 12.6322 102.604 15.0066C101.9 17.7848 101.617 18.8058 100.831 21.5127L100.818 21.5602ZM111.016 15.6952H105.174L106.046 12.2523H111.888L111.016 15.6952ZM110.89 16.1939L109.916 20.0405H104.074L105.048 16.1939H110.89Z" fill="white"/>
<path d="M122.846 22.1775C125.375 21.5364 126.597 21.0853 127.979 20.3017C130.655 18.782 132.435 16.5263 133.121 13.8194C133.451 12.5134 133.435 11.6824 133.075 10.5189C133.129 10.3052 133.177 10.1152 133.201 10.0203C133.424 9.1417 133.89 7.5983 134.31 6.33983C135.184 6.2686 135.618 6.24485 136.474 6.24485C138.086 6.24485 139.15 6.31609 140.543 6.4823C141.395 6.60102 141.76 6.64851 141.987 6.64851C142.516 6.64851 142.966 6.36357 143.074 5.93617C143.17 5.55626 143.104 5.31881 142.843 5.05762C142.327 4.51149 141.333 4.06034 140.653 4.06034C140.275 4.06034 140.012 4.10783 139.51 4.29779C138.564 4.65396 138.356 4.6777 134.784 4.96264C135.157 3.98911 135.261 3.77541 135.801 3.1343C136.087 2.80187 136.179 2.63566 136.239 2.39821C136.378 1.85209 136.021 1.47217 135.117 1.16349C134.276 0.902299 133.331 0.759831 132.374 0.759831C131.568 0.759831 131.217 0.854809 130.667 1.23472C131.783 1.40094 132.335 1.70962 132.605 2.232C132.844 2.68315 132.777 3.44298 132.37 5.24757C130.61 5.43753 129.837 5.50877 128.793 5.65124C124.155 6.2686 124.155 6.2686 123.4 6.2686C122.266 6.2686 121.544 5.84119 121.06 4.86766C120.936 5.05762 120.881 5.17634 120.857 5.27132C120.731 5.76996 120.859 6.45855 121.163 7.14715C121.627 8.09694 122.25 8.61932 122.981 8.61932C123.207 8.61932 123.553 8.54809 123.747 8.47685C125.87 7.55081 128.626 6.9097 132.096 6.52979C131.911 7.36085 131.863 7.55081 131.718 8.12068C131.646 8.40562 131.598 8.59558 131.43 9.26043C130.809 8.928 130.525 8.85677 129.996 8.85677C127.906 8.85677 126.018 10.4477 125.452 12.6797C124.893 14.8879 125.933 16.55 127.846 16.55C128.451 16.55 128.965 16.4076 129.516 16.1226C128.704 17.7373 127.872 18.7346 126.406 19.8506C125.315 20.6816 124.32 21.2277 122.792 21.8926L122.846 22.1775ZM130.635 12.2997C130.304 13.6057 129.533 14.3655 128.551 14.3655C127.443 14.3655 126.952 13.3208 127.331 11.8249C127.655 10.5426 128.689 9.54536 129.696 9.54536C130.728 9.54536 131.08 10.5426 130.635 12.2997Z" fill="white"/>
<path d="M141.29 22.13C143.132 21.4177 143.946 21.0853 144.904 20.5866C148.277 18.9008 151.212 16.4551 153.481 13.4632C155.408 10.9226 156.502 8.69055 157.778 4.74894C157.269 7.55081 157.135 8.97549 157.172 11.0175C157.241 14.1281 157.862 16.645 159.075 18.6158C159.903 19.9218 161.618 21.7026 162.096 21.7026C162.222 21.7026 162.341 21.6314 162.502 21.394C163.623 19.8506 164.321 19.2807 165.707 18.877L165.793 18.6396C163.871 17.9747 162.826 17.4286 161.586 16.3601C159.436 14.508 158.312 12.086 158.053 8.83302C157.897 6.86221 158.05 4.86766 158.452 3.27677C158.501 3.08681 158.573 2.80187 158.688 2.4457C159.591 2.16077 159.854 2.0183 159.902 1.82834C159.974 1.5434 159.501 1.42468 157.761 1.23472C157.339 1.21098 156.652 1.13975 155.795 1.04477C155.689 1.66213 155.648 1.92332 155.527 2.39821C155.257 3.46672 154.692 5.20009 154.222 6.45855C153.015 9.73532 151.485 12.3947 149.395 14.9829C147.043 17.9035 144.931 19.6843 141.224 21.8926L141.29 22.13Z" fill="white"/>
<path d="M172.546 20.3662C174.105 20.1762 175.084 19.9455 176.076 19.5521C178.393 18.643 179.942 17.069 180.44 15.1016C181.121 12.4151 179.317 10.5019 176.109 10.5019C173.965 10.5019 171.709 11.3432 170.121 12.7272C169.163 13.5548 168.441 14.586 168.225 15.4408C168.084 15.9971 168.149 16.5941 168.391 17.0012C168.684 17.4897 168.751 17.6796 168.755 18.0053C168.758 18.5073 168.796 18.6972 168.86 18.9008C168.959 19.1314 169.22 19.2943 169.537 19.2943C170.256 19.2943 171.28 18.548 172.586 17.0826C174.038 15.4408 175.253 13.5413 175.528 12.4558C175.662 11.9266 175.596 11.5603 175.233 11.004C175.514 10.9768 175.629 10.9768 175.816 10.9768C178.291 10.9768 179.437 12.3608 178.849 14.681C178.495 16.0785 177.718 17.2726 176.507 18.2495C175.42 19.1314 174.19 19.7284 172.537 20.1762L172.546 20.3662ZM174.935 11.0447C174.95 11.0447 174.973 11.2346 174.975 11.3432C174.987 11.4653 174.957 11.6417 174.919 11.7909C174.768 12.3879 174.051 13.5141 173.009 14.7895C171.651 16.4585 170.416 17.5846 169.941 17.5846C169.452 17.5846 169.207 16.6213 169.444 15.6851C169.732 14.5453 170.571 13.392 171.801 12.4558C172.831 11.6824 173.708 11.2889 174.935 11.0447Z" fill="white"/>
<path d="M183.433 12.0894C183.67 13.202 184.204 13.6498 185.34 13.6498C185.7 13.6498 185.948 13.6362 186.293 13.582C184.952 15.7529 183.737 17.3675 182.826 18.1816C182.42 18.5344 182.353 18.6294 182.26 18.9957C182.154 19.4164 182.163 19.9455 182.307 20.2305C182.374 20.3662 182.537 20.4611 182.709 20.4611C182.939 20.4611 183.172 20.339 183.374 20.1084C183.601 19.837 183.954 19.2942 184.67 18.1138C185.99 15.97 185.99 15.97 186.463 15.183C187.229 13.9212 187.229 13.9212 187.539 13.4327C190.362 12.7407 191.529 12.2794 191.646 11.8181C191.691 11.6417 191.653 11.506 191.516 11.4246C191.334 11.2889 190.944 11.1804 190.685 11.1804C190.527 11.1804 190.337 11.2482 190.145 11.3839C189.523 11.7909 189.212 11.9402 188.288 12.2387C188.913 11.3025 189.151 10.9904 189.417 10.7326C189.716 10.4612 189.741 10.4205 189.782 10.2577C189.844 10.0135 189.665 9.75567 189.317 9.59285C188.858 9.36219 188.274 9.2265 187.756 9.2265C187.367 9.2265 187.259 9.25364 186.963 9.40289C187.407 9.52501 187.573 9.60642 187.708 9.75567C187.868 9.91849 187.91 10.1492 187.845 10.407C187.725 10.8819 187.364 11.6824 186.875 12.5915C186.236 12.7272 185.629 12.795 185.096 12.795C184.377 12.795 184.008 12.605 183.598 12.008L183.433 12.0894ZM189.203 14.7624C190.124 14.4775 191.028 14.3147 191.733 14.3147C191.82 14.3147 191.935 14.3147 192.093 14.3147L190.313 15.6036L190.369 15.7258C190.566 15.6308 190.616 15.6036 190.812 15.5087C191.385 15.2373 191.385 15.2373 191.496 15.1966C191.993 14.9931 192.435 14.8981 192.837 14.8981L193.395 14.9117C193.87 14.9117 194.148 14.7217 194.244 14.3418C194.382 13.7991 193.856 13.4327 192.906 13.4327C191.77 13.4327 190.376 13.8805 189.179 14.6267L189.203 14.7624ZM188.217 16.8384C187.934 17.2726 187.78 17.5982 187.676 18.0053C187.487 18.7515 187.628 19.3892 188.065 19.8234C188.549 20.2983 189.549 20.5561 190.93 20.5561C192.412 20.5561 193.129 20.339 193.249 19.8641C193.3 19.6606 193.266 19.5113 193.16 19.3621C192.948 19.0636 192.506 18.8194 192.219 18.8194C192.132 18.8194 192.028 18.8329 191.917 18.8736C191.293 19.0636 190.92 19.1179 190.287 19.1179C188.589 19.1179 187.91 18.5616 188.205 17.3947C188.236 17.2726 188.285 17.1369 188.379 16.8791L188.217 16.8384Z" fill="white"/>
<path d="M199.558 10.7462C200.077 11.4246 200.154 11.8588 200.055 13.5548C199.127 14.0976 198.538 14.5453 197.973 15.1288C197.423 15.7122 196.988 16.4042 196.848 16.9605C196.758 17.3133 196.831 17.6525 197.046 17.9374C197.309 18.2631 197.328 18.358 197.287 18.8058C197.239 19.335 197.407 19.5792 197.839 19.5792C198.199 19.5792 198.593 19.4435 199.182 19.1043C199.736 18.7922 200.207 18.4666 200.577 18.1409C200.937 18.7108 201.325 18.9957 201.714 18.9957C202.016 18.9957 202.276 18.8194 202.341 18.5616C202.4 18.3309 202.351 18.1816 202.055 17.761C201.876 17.5032 201.824 17.4218 201.728 17.1776C203.062 15.8886 204.175 14.5046 205.319 12.7136C206.003 12.795 206.405 12.9714 206.758 13.3377C207.282 13.8805 207.418 14.7081 207.167 15.6986C206.899 16.757 206.285 17.7067 205.373 18.5209C204.302 19.4571 203.254 19.9591 201.192 20.5425L201.187 20.6782C202.757 20.5561 203.787 20.3526 204.804 19.9727C206.946 19.1857 208.343 17.8153 208.776 16.1057C209.306 14.0161 208.01 12.4286 205.601 12.2251C205.978 11.5874 206.262 10.9768 206.331 10.7055C206.396 10.4477 206.35 10.2306 206.154 10.0406C205.925 9.80995 205.477 9.64713 205.088 9.64713C204.728 9.64713 204.431 9.7421 203.812 10.027L203.81 10.1492C204.018 10.122 204.104 10.122 204.234 10.122C204.738 10.122 204.887 10.2713 204.787 10.6648C204.688 11.0582 204.52 11.4924 204.173 12.2387C202.912 12.3879 202.184 12.5915 201.068 13.0799C201.081 11.7774 200.75 11.2075 199.711 10.6512L199.558 10.7462ZM200.054 14.3554C199.967 15.4951 200.006 16.3635 200.186 17.2997C199.463 17.8831 198.777 18.2631 198.417 18.2631C198.072 18.2631 197.874 17.6796 198.015 17.1233C198.273 16.1057 198.906 15.2509 200.054 14.3554ZM201.075 13.6769C202.05 13.1206 202.742 12.89 203.934 12.7272C203.212 14.0433 202.342 15.2644 201.372 16.3092C201.233 15.78 201.182 15.4137 201.151 14.9659C201.099 13.9212 201.099 13.9212 201.075 13.6769Z" fill="white"/>
<path d="M215.712 20.3662C217.271 20.1762 218.25 19.9455 219.242 19.5521C221.558 18.643 223.108 17.069 223.606 15.1016C224.287 12.4151 222.483 10.5019 219.275 10.5019C217.131 10.5019 214.875 11.3432 213.287 12.7272C212.329 13.5548 211.607 14.586 211.391 15.4408C211.25 15.9971 211.315 16.5941 211.557 17.0012C211.85 17.4897 211.917 17.6796 211.921 18.0053C211.924 18.5073 211.962 18.6972 212.025 18.9008C212.125 19.1314 212.386 19.2943 212.703 19.2943C213.422 19.2943 214.446 18.548 215.752 17.0826C217.204 15.4408 218.419 13.5413 218.694 12.4558C218.828 11.9266 218.762 11.5603 218.399 11.004C218.68 10.9768 218.795 10.9768 218.982 10.9768C221.457 10.9768 222.603 12.3608 222.015 14.681C221.661 16.0785 220.884 17.2726 219.672 18.2495C218.586 19.1314 217.356 19.7284 215.703 20.1762L215.712 20.3662ZM218.101 11.0447C218.116 11.0447 218.139 11.2346 218.141 11.3432C218.153 11.4653 218.123 11.6417 218.085 11.7909C217.934 12.3879 217.217 13.5141 216.174 14.7895C214.817 16.4585 213.582 17.5846 213.107 17.5846C212.618 17.5846 212.372 16.6213 212.61 15.6851C212.898 14.5453 213.737 13.392 214.967 12.4558C215.997 11.6824 216.874 11.2889 218.101 11.0447Z" fill="white"/>
<path d="M239.322 11.6349C238.945 11.6349 238.51 11.5637 238.092 11.4212L237.996 12.2997C238.46 12.1573 238.693 12.1335 239.196 12.1335H239.297C239.397 14.7217 239.696 16.0277 240.526 17.5236C238.821 19.1857 237.61 20.088 235.541 21.299C236.053 18.877 236.335 17.666 236.78 15.9089L238.397 9.52162H250.232C250.358 9.52162 250.445 9.47413 250.463 9.40289C250.475 9.3554 250.443 9.28417 250.386 9.21294C249.537 8.28689 249.251 8.0257 248.271 7.1234C247.28 7.95447 246.968 8.19192 245.926 9.02298H229.005C228.502 9.02298 227.966 8.95175 227.423 8.80928L227.377 9.68783C227.935 9.56911 228.3 9.52162 228.879 9.52162H229.71L227.545 18.0697C226.722 18.1409 226.388 18.1647 225.935 18.1647C225.759 18.1647 225.482 18.1647 225.135 18.1409C225.24 21.109 225.276 21.4652 225.578 21.4652C225.829 21.4652 226.053 21.1803 226.309 20.4679C229.387 19.4469 231.958 18.5446 233.73 17.8085C233.501 18.6158 233.501 18.6158 232.656 21.6552C232.541 22.1063 232.649 22.1775 233.43 22.1775C234.941 22.1775 235.323 22.0588 235.475 21.5602C237.952 20.8241 239.38 20.1592 241.39 18.782C242.086 19.6131 242.831 20.2542 243.934 20.9666C244.454 21.299 245.126 21.6314 245.252 21.6314C245.378 21.6314 245.477 21.5364 245.65 21.2515C245.847 20.8716 246.213 20.4204 246.605 20.0643C247.134 19.5656 247.472 19.3282 248.198 19.0432L248.29 18.782C245.812 18.4259 244.807 18.1172 243.311 17.2624C244.744 15.9802 245.569 15.0066 247.036 12.8934C247.965 12.6084 248.252 12.466 248.307 12.2523C248.331 12.1573 248.304 12.0623 248.139 11.9198C247.388 11.2075 247.165 10.9938 246.395 10.3527C245.634 10.8751 245.409 11.065 244.635 11.6349H239.322ZM232.253 9.52162H235.829L235.24 11.8486H231.664L232.253 9.52162ZM231.538 12.3472H235.113L234.53 14.6505H230.954L231.538 12.3472ZM230.828 15.1491H234.404L233.857 17.3099C232.204 17.5711 231.136 17.7135 230.161 17.7848L230.828 15.1491ZM244.534 12.1335C243.462 14.0806 242.974 14.8167 241.825 16.1701C240.597 15.0541 240.132 14.1043 239.775 12.1335H244.534ZM233.98 7.07592H244.581L244.449 7.5983C244.371 7.90698 244.504 7.97821 245.209 7.97821C246.695 7.97821 247.077 7.85949 247.223 7.3846C247.647 5.50877 247.947 4.22655 248.115 3.5617L248.38 2.51694C249.144 2.18451 249.381 2.04204 249.435 1.82834C249.459 1.73336 249.383 1.63838 249.223 1.47217C248.281 0.617362 248.282 0.617362 247.557 0C246.814 0.546128 246.596 0.712341 245.878 1.25847H235.68C234.521 0.664851 234.16 0.498639 232.977 0C232.764 1.13975 232.681 1.56715 232.302 3.06306C231.863 4.79643 231.592 5.76996 231.077 7.50332C230.975 7.90698 231.064 7.95447 232.096 7.95447C233.506 7.95447 233.776 7.88323 233.884 7.45583L233.98 7.07592ZM245.387 3.89413H234.786L235.327 1.75711H245.928L245.387 3.89413ZM245.261 4.39277L244.708 6.57728H234.107L234.66 4.39277H245.261Z" fill="white"/>
<path d="M266.911 2.9206L267.29 1.42468C268.304 0.997277 268.361 0.973533 268.403 0.80732C268.481 0.498639 267.868 0.332425 266.356 0.237447C265.959 0.213702 265.367 0.166214 264.579 0.0949791C264.476 0.902299 264.411 1.25847 264.308 1.66213L263.99 2.9206H256.335C255.706 2.9206 255.189 2.87311 254.45 2.70689L254.429 3.58545C254.982 3.49047 255.705 3.41924 256.234 3.41924H277.008C277.133 3.41924 277.252 3.348 277.27 3.27677C277.282 3.22928 277.269 3.18179 277.212 3.11055C276.18 2.11328 275.83 1.8046 274.73 0.878553L272.299 2.9206H266.911ZM261.23 5.3663C260.096 4.77268 259.736 4.60647 258.471 4.13157C258.251 5.20009 258.138 5.74621 257.861 6.83847C257.536 8.12068 257.512 8.21566 256.962 10.0915C256.909 10.4002 257.067 10.4714 257.696 10.4714C259.383 10.4714 259.597 10.4239 259.769 10.044L259.913 9.47413H267.769L267.607 10.1152C267.579 10.4239 267.706 10.5189 268.21 10.5189C268.89 10.5189 269.845 10.4239 270.096 10.3289C270.259 10.2814 270.333 10.1865 270.419 9.94902C270.503 9.6166 270.563 9.37915 270.605 9.21294C270.79 8.38187 270.947 7.76451 270.959 7.71702C271.115 7.09966 271.139 7.00468 271.277 6.45855C271.96 6.14987 272.235 5.95992 272.283 5.76996C272.307 5.67498 272.255 5.58 272.134 5.46128C271.359 4.84392 271.099 4.6777 270.28 4.13157C269.575 4.63021 269.357 4.79643 268.684 5.3663H261.23ZM260.827 5.86494H268.683L267.895 8.97549H260.039L260.827 5.86494ZM260.389 14.0569C259.325 13.487 258.989 13.3208 257.825 12.8459C257.564 14.1756 257.408 14.7929 256.957 16.5738C256.602 17.9747 256.482 18.4496 256.112 19.6131C256.059 19.9218 256.192 19.993 256.67 19.993C257.275 19.993 257.992 19.9455 258.255 19.898C258.544 19.8506 258.638 19.7793 258.743 19.5656L259.049 18.3546H264.11L263.99 18.8295C263.943 19.1145 264.076 19.1857 264.63 19.1857C265.335 19.1857 266.008 19.1145 266.278 19.0432C266.447 18.972 266.546 18.877 266.632 18.6396C266.662 18.5209 266.686 18.4259 266.698 18.3784L267.238 16.1464C267.316 15.8377 267.376 15.6003 267.478 15.1966C268.36 14.698 268.36 14.698 268.408 14.508C268.426 14.4368 268.413 14.3893 268.311 14.2943C267.617 13.6532 267.389 13.4632 266.613 12.8459L264.972 14.0569H260.389ZM260.011 14.5555H265.072L264.237 17.856H259.175L260.011 14.5555ZM256.248 11.5162C255.088 10.8276 254.714 10.6139 253.435 9.99651C253.192 11.255 252.778 12.9883 252.129 15.5528C251.516 17.9747 251.07 19.6369 250.477 21.6789C250.412 22.0351 250.539 22.13 251.043 22.13C252.956 22.13 253.251 22.0588 253.396 21.4889L254.543 16.8587L255.77 12.0148H270.651L268.805 19.3044C268.739 19.5656 268.639 19.6606 268.426 19.7081C266.379 19.6369 266.253 19.6369 265.34 19.5656L265.242 19.8506C266.486 20.1117 266.846 20.278 267.059 20.7291C267.164 21.014 267.187 21.4177 267.117 21.8926C267.063 22.1063 267.127 22.1538 267.328 22.1538C268.235 22.1538 269.315 21.9638 269.96 21.7026C270.8 21.3702 271.117 21.014 271.371 20.1117C271.623 19.1145 271.623 19.1145 271.748 18.5209C272.144 16.8587 272.198 16.645 272.324 16.1464L273.184 12.7509C274.086 12.371 274.324 12.2285 274.384 11.9911C274.402 11.9198 274.375 11.8249 274.248 11.7299C273.447 11.0175 273.174 10.8038 272.29 10.1152C271.505 10.7326 271.255 10.9226 270.526 11.5162H256.248Z" fill="white"/>
<path d="M280.461 20.3662C282.02 20.1762 282.999 19.9455 283.991 19.5521C286.307 18.643 287.857 17.069 288.355 15.1016C289.036 12.4151 287.232 10.5019 284.024 10.5019C281.88 10.5019 279.623 11.3432 278.036 12.7272C277.078 13.5548 276.356 14.586 276.14 15.4408C275.999 15.9971 276.063 16.5941 276.306 17.0012C276.599 17.4897 276.666 17.6796 276.67 18.0053C276.673 18.5073 276.711 18.6972 276.774 18.9008C276.874 19.1314 277.135 19.2943 277.452 19.2943C278.171 19.2943 279.195 18.548 280.501 17.0826C281.953 15.4408 283.168 13.5413 283.442 12.4558C283.576 11.9266 283.511 11.5603 283.148 11.004C283.428 10.9768 283.544 10.9768 283.731 10.9768C286.205 10.9768 287.351 12.3608 286.764 14.681C286.41 16.0785 285.633 17.2726 284.421 18.2495C283.335 19.1314 282.104 19.7284 280.451 20.1762L280.461 20.3662ZM282.85 11.0447C282.864 11.0447 282.888 11.2346 282.89 11.3432C282.902 11.4653 282.872 11.6417 282.834 11.7909C282.683 12.3879 281.966 13.5141 280.923 14.7895C279.565 16.4585 278.331 17.5846 277.856 17.5846C277.367 17.5846 277.121 16.6213 277.358 15.6851C277.647 14.5453 278.486 13.392 279.716 12.4558C280.746 11.6824 281.623 11.2889 282.85 11.0447Z" fill="white"/>
<path d="M304.569 1.61464C303.567 0.997276 303.232 0.831065 302.136 0.284937C301.915 1.25847 301.831 1.59089 301.626 2.39821L301.575 2.30323C300.853 1.47217 300.637 1.23472 299.872 0.474895C299.062 1.18723 298.826 1.42468 298.066 2.13702H295.145C294.617 2.13702 294.226 2.08953 293.632 1.94706L293.585 2.73064C294.157 2.65941 294.415 2.63566 295.019 2.63566H296.026L294.499 8.66681H293.693C293.139 8.66681 292.824 8.61932 292.205 8.47685L292.158 9.26043C292.78 9.18919 293.089 9.16545 293.592 9.16545H294.373L292.743 15.6003C291.174 15.9327 290.859 15.9802 289.904 16.0751C290.05 18.877 290.152 19.4706 290.429 19.4706C290.655 19.4706 290.828 19.1857 291.102 18.4021C295.414 16.2889 296.671 15.6003 298.67 14.2706L298.585 14.0094C297.369 14.4368 296.905 14.5792 295.53 14.9354L296.992 9.16545H299.661C299.812 9.16545 299.899 9.11796 299.917 9.04673C299.929 8.99924 299.922 8.928 299.884 8.88051C299.429 8.19192 299.281 7.97821 298.739 7.33711C298.11 7.93073 297.942 8.09694 297.319 8.66681H297.118L298.645 2.63566H301.289L301.584 2.56443C301.151 4.27404 301.151 4.27404 300.469 6.76723L300.457 6.81473C300.355 7.21838 300.521 7.36085 301.1 7.36085C301.729 7.36085 302.477 7.28962 302.753 7.19464C302.922 7.1234 302.997 7.02843 303.082 6.79098L303.154 6.50604H311.892L311.832 6.74349C311.779 7.05217 311.931 7.14715 312.51 7.14715C312.636 7.14715 312.837 7.14715 313.07 7.1234C312.639 7.43209 312.359 7.64579 311.678 8.14443H301.732C301.103 8.14443 300.636 8.09694 300.093 7.95447L300.071 8.73804C300.668 8.66681 300.976 8.64306 301.606 8.64306H315.228C315.379 8.64306 315.467 8.59558 315.485 8.52434C315.497 8.47685 315.484 8.42936 315.432 8.33438C314.771 7.76451 314.771 7.76451 313.95 7.02843C314.377 6.93345 314.502 6.83847 314.592 6.4823C314.969 4.79643 315.094 4.20281 315.473 2.70689C316.18 2.39821 316.393 2.25575 316.441 2.06579C316.477 1.92332 316.406 1.8046 316.202 1.61464C315.522 1.02102 315.287 0.854809 314.55 0.284937C313.826 0.854809 313.608 1.02102 312.879 1.61464H304.569ZM312.018 6.0074H310.532L311.519 2.11328H313.004L312.018 6.0074ZM308.367 6.0074H306.881L307.867 2.11328H309.353L308.367 6.0074ZM304.716 6.0074H303.281L304.267 2.11328H305.702L304.716 6.0074ZM310.192 10.234H303.066C302.015 9.71158 301.674 9.56911 300.523 9.1417C300.319 10.044 300.236 10.4714 300.044 11.2312C299.852 11.9911 299.64 12.7272 299.139 14.508L299.133 14.5317C299.043 14.8879 299.164 15.0066 299.692 15.0066C300.548 15.0066 301.196 14.9354 301.447 14.8404C301.585 14.7929 301.69 14.6742 301.769 14.4605L301.86 14.1043H303.471C302.007 15.4103 301.04 16.1464 299.311 17.3099C297.012 18.8295 295.286 19.7793 292.644 20.9666L292.709 21.204C294.736 20.6579 296.003 20.2305 297.663 19.5419C300.03 18.5446 301.488 17.761 303.248 16.4788L302.741 18.3784C302.422 19.5419 302.234 20.183 301.793 21.7264C301.781 21.7739 301.769 21.8214 301.763 21.8451C301.685 22.1538 301.85 22.2963 302.328 22.2963C302.328 22.2963 302.379 22.2963 302.429 22.2963C302.48 22.2963 302.58 22.2963 302.681 22.2963C303.386 22.2963 304.014 22.2013 304.24 22.1063C304.359 22.0351 304.433 21.9401 304.512 21.7264C304.913 19.9455 304.913 19.9455 305.411 17.8797L306.195 14.4843C306.808 17.3336 307.754 19.067 309.465 20.5629C310.019 21.0615 310.539 21.394 310.766 21.394C310.866 21.394 310.954 21.3465 311.04 21.204C311.8 19.993 312.361 19.4706 313.432 19.0195L313.511 18.8058C311.512 18.5446 309.823 17.856 308.61 16.8825C309.835 16.7163 310.501 16.5738 311.976 16.2176C312.386 16.2889 312.651 16.3363 312.777 16.3363C312.978 16.3363 313.153 16.2414 313.189 16.0989C313.231 15.9327 313.212 15.9089 311.358 14.5792C311.785 14.4843 311.941 14.3655 312.019 14.0569C312.367 12.5847 312.576 11.6586 312.678 11.255C313.368 11.0175 313.58 10.8751 313.629 10.6851C313.653 10.5901 313.607 10.4714 313.417 10.3289C312.749 9.78281 312.539 9.6166 311.802 9.04673L310.192 10.234ZM309.414 14.1043L309.402 14.1518C309.39 14.1993 309.384 14.2231 309.378 14.2468C309.299 14.5555 309.446 14.6742 309.924 14.6742L310.283 14.6505C310.358 14.6505 310.383 14.6505 310.509 14.6505C309.75 15.3628 309.219 15.7665 308.113 16.4551C307.291 15.624 306.932 15.0541 306.594 14.1043H309.414ZM309.54 13.6057H301.986L302.713 10.7326H310.268L309.54 13.6057Z" fill="white"/>
<path d="M335.511 3.32426C334.933 4.51149 334.216 5.65123 333.237 6.93345H330.14C330.778 6.60102 331.263 6.07864 331.383 5.60375C331.587 4.79643 330.976 4.22655 328.913 3.32426L328.614 3.51421C328.842 4.20281 328.916 4.60647 328.88 5.24757C328.789 6.60102 328.789 6.60102 328.931 6.93345H325.91C325.385 6.22111 325.314 6.10238 324.746 5.46128L323.165 6.93345H322.913L324.206 1.82834C325.035 1.63838 325.379 1.47217 325.439 1.23472C325.511 0.949788 325.183 0.854809 323.526 0.736086C323.129 0.712342 322.511 0.664852 321.724 0.593618C321.47 1.99455 321.314 2.70689 320.99 3.98911L320.244 6.93345H318.758C318.305 6.93345 317.87 6.86221 317.371 6.74349L317.287 7.57455C317.789 7.47958 318.204 7.43209 318.632 7.43209H320.118L318.23 14.8879C316.961 15.1254 316.408 15.2203 315.327 15.3153C315.577 18.9008 315.577 18.9008 315.879 18.9008C316.131 18.9008 316.292 18.6633 316.571 17.761C319.281 16.5026 321.927 15.1016 324.384 13.6532L324.324 13.392C322.75 13.8431 322.185 13.9856 321.061 14.2468L322.787 7.43209H340.866C341.017 7.43209 341.13 7.3846 341.148 7.31336C341.16 7.26587 341.153 7.19464 341.07 7.1234C340.286 6.24485 340.024 5.98366 339.09 5.20009C338.011 6.07864 338.011 6.07864 336.938 6.93345H334.32C335.558 6.22111 336.201 5.76996 337.462 4.86766C338.305 4.82017 338.549 4.74894 338.603 4.53524C338.669 4.27404 338.283 4.10783 336.09 3.32426H341.403C341.604 3.32426 341.692 3.27677 341.71 3.20553C341.722 3.15804 341.715 3.08681 341.632 3.01558C340.797 2.13702 340.505 1.89958 339.526 1.09226C338.634 1.82834 338.353 2.04204 337.425 2.82562H334.655L335.016 1.40094C335.932 1.16349 336.245 1.02102 336.299 0.80732C336.317 0.736086 336.272 0.617362 336.208 0.569872C335.923 0.40366 335.853 0.379916 332.539 0.142469C332.391 0.926043 332.32 1.30596 332.17 1.89958L331.935 2.82562H327.957C327.428 2.82562 326.987 2.77813 326.368 2.63566L326.309 3.46672C326.811 3.37175 327.277 3.32426 327.831 3.32426H335.511ZM326.744 15.1729H330.723L330.109 17.5948C329.791 18.8533 329.791 18.8533 329.472 20.1117L329.454 20.183C329.111 21.5364 329.516 21.7264 332.588 21.7264C334.502 21.7264 335.986 21.6314 336.639 21.4414C337.235 21.2752 337.733 20.8003 337.877 20.2305C337.997 19.7556 337.855 19.4231 337.411 19.1857C337.171 19.0432 337.113 18.972 337.167 18.7583C337.173 18.7346 337.215 18.5683 337.301 18.3309L338.315 15.2203L338.05 15.1729C336.29 18.046 335.888 18.6396 335.515 19.0195C335.173 19.3757 334.821 19.4706 333.864 19.4706C332.303 19.4706 332.303 19.4706 332.436 18.9483L333.392 15.1729H333.895L333.793 15.5765C333.74 15.8852 333.784 15.9089 334.489 15.9089C335.623 15.9089 336.201 15.814 336.4 15.624C336.468 15.5528 336.517 15.4578 336.565 15.2678C336.947 13.4632 337.091 12.8934 337.819 10.0203C338.495 9.73532 338.676 9.6166 338.724 9.42664C338.761 9.28417 338.703 9.21294 338.499 9.02298C337.801 8.5006 337.591 8.33438 336.842 7.812C336.181 8.33438 335.963 8.5006 335.239 9.07047H328.566C327.464 8.45311 327.103 8.28689 325.926 7.76451C325.718 8.78553 325.574 9.45038 325.28 10.6139C324.709 12.8696 324.437 13.8431 323.942 15.6003C323.827 16.0514 323.96 16.1226 324.816 16.1226C325.522 16.1226 325.805 16.0989 326.231 16.0039C325.668 17.3336 324.936 18.2359 323.745 19.162C322.247 20.3017 320.431 21.109 317.533 21.9163L317.505 22.225C320.548 21.9401 322.011 21.6314 323.815 20.8716C326.039 19.9455 327.41 18.8058 328.765 16.74C329.543 16.55 329.712 16.4788 329.766 16.2651C329.838 15.9802 329.718 15.9564 326.654 15.529L326.744 15.1729ZM334.743 11.8249H327.592L328.163 9.56911H335.314L334.743 11.8249ZM334.617 12.3235L334.021 14.6742H326.87L327.466 12.3235H334.617Z" fill="white"/>
</svg>
