<svg width="28" height="17" viewBox="0 0 28 17" fill="none" xmlns="http://www.w3.org/2000/svg">
<path d="M15.2597 8.78595C15.2597 11.2389 14.5729 13.1914 13.1992 14.6436C11.8256 16.0957 9.98412 16.8218 7.6748 16.8218C5.40531 16.8218 3.59867 16.081 2.25489 14.5994C0.921064 13.108 0.25415 11.1064 0.25415 8.59462C0.25415 6.08281 0.935994 4.06649 2.29968 2.54567C3.65342 1.01504 5.4501 0.249719 7.68974 0.249719C10.0488 0.249719 11.9002 1.01013 13.244 2.53095C14.5878 4.05178 15.2597 6.13678 15.2597 8.78595ZM9.45158 8.59462C9.45158 8.00592 9.41177 7.47608 9.33213 7.00512C9.2525 6.52434 9.13803 6.11715 8.98872 5.78355C8.83941 5.44014 8.66024 5.17522 8.45121 4.9888C8.24218 4.80238 8.00826 4.70917 7.74946 4.70917C7.24181 4.70917 6.8337 5.06239 6.52513 5.76884C6.21655 6.38698 6.06227 7.31419 6.06227 8.55047C6.06227 9.76713 6.21655 10.6943 6.52513 11.3321C6.8337 12.0386 7.24679 12.3918 7.76439 12.3918C8.25213 12.3918 8.65527 12.0435 8.97379 11.3468C9.29232 10.5717 9.45158 9.65429 9.45158 8.59462Z" fill="#92CFCF"/>
<path d="M23.5762 16.498H17.5889V0.588225H23.5762L23.2627 3.69365C24.1685 1.36826 25.6665 0.205566 27.7569 0.205566V6.82851C27.0999 6.47528 26.5425 6.29867 26.0846 6.29867C25.2783 6.29867 24.6562 6.58812 24.2182 7.16701C23.7902 7.73609 23.5762 8.57009 23.5762 9.66901V16.498Z" fill="#92CFCF"/>
</svg>
